<svg xmlns="http://www.w3.org/2000/svg" viewBox="0 0 24 24" fill="#FFFFFF">
  <path d="M23.954 4.579c-.885.389-1.83.651-2.825.772 1.013-.609 1.792-1.574 2.161-2.723-.949.56-2.004.969-3.128 1.19-.897-.957-2.178-1.555-3.596-1.555-2.718 0-4.92 2.202-4.92 4.92 0 .386.044.762.13 1.125C7.12 7.94 3.774 6.018 1.527 3.095c-.425.727-.668 1.573-.668 2.482 0 1.71.87 3.213 2.192 4.096-.807-.025-1.566-.247-2.229-.616v.062c0 2.385 1.693 4.373 3.946 4.825-.412.112-.847.173-1.294.173-.316 0-.625-.03-.93-.087.626 1.953 2.444 3.377 4.603 3.416-1.685 1.32-3.807 2.103-6.098 2.103-.396 0-.786-.023-1.173-.068C1.733 21.778 3.892 22.5 6.214 22.5c7.454 0 11.525-6.17 11.525-11.525 0-.176-.005-.352-.015-.527.793-.57 1.484-1.285 2.03-2.097z"/>
</svg>


